<?xml version="1.0" standalone="no"?>
<!DOCTYPE svg PUBLIC "-//W3C//DTD SVG 20010904//EN"
 "http://www.w3.org/TR/2001/REC-SVG-20010904/DTD/svg10.dtd">
<svg version="1.0" xmlns="http://www.w3.org/2000/svg"
 width="700.000000pt" height="700.000000pt" viewBox="0 0 700.000000 700.000000"
 preserveAspectRatio="xMidYMid meet">
<metadata>
Created by potrace 1.14, written by Peter Selinger 2001-2017
</metadata>
<g transform="translate(0.000000,700.000000) scale(0.100000,-0.100000)"
fill="#000000" stroke="none">
<path d="M3355 6826 c-33 -13 -116 -56 -185 -96 -69 -40 -240 -139 -380 -220
-140 -81 -272 -157 -293 -169 -21 -12 -107 -61 -190 -110 -153 -89 -452 -261
-517 -298 -19 -11 -102 -59 -183 -107 -82 -47 -153 -86 -158 -86 -5 0 -9 -4
-9 -10 0 -5 -4 -10 -9 -10 -5 0 -49 -23 -98 -51 -48 -28 -103 -60 -121 -71
-18 -10 -93 -53 -165 -95 -73 -42 -163 -94 -202 -116 -148 -84 -203 -132 -250
-219 -57 -105 -55 -27 -55 -1660 0 -1070 3 -1522 11 -1560 21 -98 80 -189 168
-257 32 -24 57 -40 206 -124 33 -18 206 -118 385 -221 179 -104 345 -200 370
-214 25 -13 50 -28 55 -32 6 -4 26 -17 45 -27 42 -24 468 -270 490 -284 30
-18 357 -206 371 -212 8 -4 30 -17 49 -28 243 -146 630 -362 678 -378 39 -13
87 -21 131 -21 122 0 136 6 621 288 52 30 142 82 200 115 58 33 119 68 135 77
933 541 1498 867 1525 882 19 11 56 31 81 46 25 15 77 45 115 66 123 70 183
124 228 207 59 106 56 28 56 1675 0 1474 0 1513 -20 1575 -42 138 -103 203
-290 310 -52 30 -104 59 -115 66 -11 7 -27 16 -35 20 -8 4 -49 27 -90 51 -41
25 -91 54 -110 65 -41 23 -447 257 -1075 620 -247 143 -565 326 -705 407 -140
81 -271 157 -291 168 -106 64 -267 80 -374 38z"/>
</g>
</svg>
