<?xml version="1.0" encoding="UTF-8"?>
<svg width="722.4" height="589.2" version="1.1" viewBox="0 0 722.4 589.2" xmlns="http://www.w3.org/2000/svg" xmlns:cc="http://creativecommons.org/ns#" xmlns:dc="http://purl.org/dc/elements/1.1/" xmlns:rdf="http://www.w3.org/1999/02/22-rdf-syntax-ns#">
 <metadata>
  <rdf:RDF>
   <cc:Work rdf:about="">
    <dc:format>image/svg+xml</dc:format>
    <dc:type rdf:resource="http://purl.org/dc/dcmitype/StillImage"/>
    <dc:title/>
   </cc:Work>
  </rdf:RDF>
 </metadata>
 <g stroke-width="1.2">
  <path d="m496.17 1.2227c-23.997-0.024387-25.786 0.45428-28.832 7.7441-2.4504 5.8646 0.0164 12.657 5.7539 15.844l2.7109 1.5039-3 0.05469c-1.65 0.02984-5.7238 1.3219-9.0508 2.8711-20.033 9.3286-21.637 31.248-4.8496 66.279 6.3477 13.246 6.3722 13.334 4.1562 16.199-3.8639 4.9966-7.0566 15.191-7.0566 22.535 0 5.3931 0.84333 8.65 3.7383 14.443 5.8728 11.752 15.642 17.708 36.867 22.479l9.7559 2.1934 9.4648 14.416c5.2053 7.9284 12.336 19.485 15.848 25.682 3.5118 6.1966 11.927 19.697 18.701 30l12.316 18.732-39.846 0.4043c-21.915 0.22211-56.193-0.26661-76.172-1.0859-22.81-0.93541-48.34-1.1768-68.617-0.65039l-32.293 0.83789-10.312-11.752c-5.6726-6.4639-13.978-17.154-18.455-23.754-9.136-13.468-23.548-37.649-22.852-38.34 0.25036-0.24818 6.1458-1.5302 13.102-2.8477 16.959-3.212 43.649-13.404 52.863-20.188 7.6592-5.6384 13.247-12.448 16.965-20.676 1.8521-4.0992 2.2756-7.1694 1.9316-13.98-0.39487-7.8197-0.92445-9.429-5.0977-15.488-7.4061-10.753-24.596-23.049-41.865-29.945-11.905-4.754-33.284-10.011-47.043-11.568-6.6-0.74698-23.973-1.5504-38.607-1.7871l-26.609-0.43164-4.9883-3.6133c-9.0279-6.5398-15.583-9.0509-24.912-9.541-11.825-0.62118-19.106 2.8915-28.984 13.984-5.7778 6.4879-8.542 8.5593-14.453 10.832-8.7566 3.3668-18.168 10.532-22.176 16.881-4.6613 7.384-6.9184 17-6.5117 27.732l0.35938 9.5098-11.959 18.754c-6.5772 10.315-19.185 29.635-28.02 42.934s-24.434 37.41-34.666 53.58-21.634 33.329-25.338 38.131c-13.066 16.942-18.135 28.201-18.135 40.289 0 10.57 7.9946 27.514 18.951 40.164 10.851 12.528 18.368 22.298 22.717 29.529 12.783 21.255 31.134 41.023 57.963 62.434 8.2333 6.5705 18.48 14.762 22.77 18.203 16.164 12.967 28.912 27.572 40.723 46.65 22.3 36.022 41.515 54.032 62.793 58.854 5.928 1.3433 16.469 1.6 50.684 1.2344 44.127-0.4716 74.253-2.3285 107.03-6.5977 33.01-4.3001 56.528-5.2745 107.18-4.4355 26.07 0.43182 60.077 1.6319 75.572 2.666 15.495 1.0341 36.556 1.6988 46.801 1.4785 17.164-0.36908 19.157-0.64862 25.371-3.5625 9.4865-4.4481 15.991-10.794 20.543-20.041 3.4354-6.9783 3.9112-9.1169 3.9004-17.57-0.01-8.0031-0.58164-10.863-3.3926-16.967-4.0324-8.7562-10.981-15.869-19.996-20.469l-6.5996-3.3672-37.199-0.78907c-109.22-2.3171-166.61-0.81548-213.08 5.5762-11.705 1.6102-29.032 3.5022-38.504 4.2051-9.4715 0.70286-26.671 2.0696-38.221 3.0371s-29.709 1.7579-40.354 1.7539l-19.355-6e-3 -5.2812-6.3008c-2.9046-3.465-8.1976-10.89-11.764-16.5-16.655-26.202-19.884-30.443-33.68-44.238-8.7522-8.7522-22.226-20.3-34.469-29.545-27.792-20.987-41.887-33.573-53.078-47.393-5.2615-6.497-13.919-15.762-19.238-20.588-5.3191-4.8263-9.9649-9.9473-10.324-11.379-0.44121-1.7579 0.66933-4.4941 3.4199-8.4297 2.24-3.2046 6.7899-10.417 10.111-16.027 14.558-24.588 27.341-45.182 39.521-63.666 7.1997-10.926 18.759-29.193 25.689-40.594l12.602-20.73 4.7988 0.69531c2.64 0.38248 11.218 1.0514 19.062 1.4863l14.262 0.79101 8.8594 12.023c4.8725 6.6131 15.691 22.863 24.041 36.109 21.617 34.294 36.399 53.739 54.471 71.646 21.265 21.073 27.869 23.929 55.105 23.834 6.93-0.0243 56.069 0.27932 109.2 0.67578 111.83 0.83445 177.43-0.44039 186.23-3.6191 7.4206-2.678 15.202-9.6719 19.607-17.625 3.1786-5.7387 3.5532-7.5186 3.5137-16.627-0.055-12.684-2.5106-18.488-15.91-37.586-10.81-15.407-41.432-61.558-50.387-75.939l-6.0566-9.7266 15.799-0.81641c8.6895-0.44871 18.77-1.5644 22.4-2.4805s13.35-2.5412 21.6-3.6113c27.392-3.5532 41.699-8.5589 53.023-18.549 6.5563-5.7839 10.455-11.652 11.869-17.863 2.9758-13.071-13.485-25.066-48.146-35.086-21.899-6.3301-49.535-11.875-71.346-14.314-12.088-1.3519-44.014-1.4678-59.074-0.21484l-9.8711 0.82031-10.461-15.617c-12.357-18.448-24.931-31.701-34.145-35.99l-6.4492-3.002 38.641-0.01172c21.253-0.0064 41.233 0.47932 44.4 1.0801 3.1675 0.60076 9.8078 1.7307 14.758 2.5098 35.003 5.5088 51.154 9.7177 65.666 17.117 7.4924 3.8202 10.201 4.6955 11.26 3.6367 2.4607-2.4607 0.40415-4.4507-10.58-10.242-11.478-6.0519-28.864-12.379-53.145-19.338-8.25-2.3644-20.4-6.2644-27-8.666-24.805-9.026-38.566-11.256-69.633-11.287zm-192.69 3.3262c-13.186-0.13876-34.632 1.3793-52.682 4.0488-44.053 6.5153-71.319 16.303-96.623 34.687-11.071 8.0434-11.91 8.8825-10.756 10.75 0.47205 0.76379 3.132-0.10555 6.9707-2.2773 3.4141-1.9316 9.4482-4.4124 13.408-5.5137 3.96-1.1013 12.06-3.5883 18-5.5254 15.637-5.0995 36.237-9.4554 47.668-10.08 5.4626-0.29852 20.795-1.1731 34.072-1.9434 18.059-1.0476 27.031-1.0576 35.617-0.04492 12.843 1.5146 15.959 0.86721 19.885-4.123 4.6486-5.9098 2.7632-15.205-3.7949-18.715-1.4849-0.7947-5.772-1.2006-11.766-1.2637zm265.79 99.648c5.976 0.0511 13.579 0.71922 16.895 1.4844 5.7274 1.3218 18.418 7.0754 26.6 12.059 8.3973 5.1146 9.5227 16.982 2.3398 24.689-5.7569 6.1775-14.259 7.2491-40.342 5.0859-19.619-1.6271-31.603-8.0757-34.793-18.723-1.885-6.2916-0.94492-10.005 3.9414-15.57 5.9929-6.8256 12.479-9.1356 25.359-9.0254zm-327.98 4.1367c5.2888-0.0568 11.347 0.15435 18.332 0.60743 25.731 1.669 32.739 4.41 38.098 14.91 4.3219 8.468 2.4221 15.551-6.1348 22.875-5.7223 4.8981-13.532 7.5282-27.594 9.291-18.552 2.3257-20.946 2.374-27.475 0.55078-7.9627-2.2235-16.621-6.8508-22.936-12.256-8.8082-7.5395-10.404-21.062-3.2559-27.596 6.1678-5.6376 15.098-8.2124 30.965-8.3828z"/>
  <path d="m614.67 150.34c3.3233-3.1839 3.8601-3.2806 22.998-4.1431 19.403-0.87443 39.395-4.0141 47.651-7.4834 5.9517-2.5009 14.49-9.0028 13.636-10.384-1.2375-2.0023-16.213-9.0132-26.356-12.339-12.074-3.9587-35.121-9.4394-54.6-12.985-13.09-2.3822-18.974-2.7315-46.2-2.7422-33.944-0.0134-48.824 1.6029-66.709 7.2457-16.18 5.1052-25.573 14.213-25.648 24.87-0.0392 5.5276 0.30847 6.319 3.8275 8.7106 4.8093 3.2686 19.558 7.3198 32.855 9.0247 11.34 1.4539 47.259 3.0113 76.009 3.2955l19.134 0.1892z" display="none"/>
  <path d="m303.73 164.61c15.065-3.0415 37.077-11.259 44.865-16.748 5.9276-4.1782 10.133-11.427 10.18-17.546 0.0566-7.4988-20.58-22.114-40.519-28.697-18.523-6.1148-28.045-7.7969-53.365-9.4269-17.741-1.1421-28.293-1.133-49.8 0.04286-47.531 2.5987-65.514 7.111-73.979 18.563-1.9632 2.656-2.4775 5.0098-2.3599 10.8 0.21457 10.559 4.2688 20.311 11.72 28.189 13.115 13.867 20.443 15.588 72.13 16.938 51.089 1.3342 65.965 0.94639 81.129-2.1152z" display="none"/>
 </g>
</svg>
