<?xml version="1.0" standalone="no"?>
<!DOCTYPE svg PUBLIC "-//W3C//DTD SVG 20010904//EN"
 "http://www.w3.org/TR/2001/REC-SVG-20010904/DTD/svg10.dtd">
<svg version="1.0" xmlns="http://www.w3.org/2000/svg"
 width="700.000000pt" height="700.000000pt" viewBox="0 0 700.000000 700.000000"
 preserveAspectRatio="xMidYMid meet">
<metadata>
Created by potrace 1.14, written by Peter Selinger 2001-2017
</metadata>
<g transform="translate(0.000000,700.000000) scale(0.100000,-0.100000)"
fill="#000000" stroke="none">
<path d="M3390 6836 c-25 -7 -56 -18 -70 -24 -14 -6 -601 -343 -1305 -750
-940 -543 -1295 -753 -1335 -790 -31 -28 -68 -72 -83 -99 -60 -111 -57 -27
-57 -1673 0 -1646 -3 -1562 57 -1673 15 -27 52 -71 83 -99 40 -37 395 -247
1340 -792 707 -408 1305 -750 1330 -760 59 -23 171 -31 240 -17 30 6 83 26
117 44 34 18 623 356 1309 752 1317 760 1330 769 1387 872 60 111 57 27 57
1673 0 1646 3 1562 -57 1673 -54 98 -102 130 -824 546 -376 217 -954 551
-1284 741 -330 190 -620 354 -645 364 -59 24 -200 30 -260 12z m1523 -2105
c150 -73 162 -281 23 -379 l-39 -27 -1376 -3 c-929 -2 -1388 0 -1412 7 -44 13
-106 72 -127 120 -35 85 -6 204 65 258 70 53 25 52 1473 50 l1345 -2 48 -24z
m-33 -1021 c87 -24 152 -114 152 -210 0 -96 -65 -186 -152 -210 -48 -13 -2712
-13 -2760 0 -86 24 -153 116 -153 210 0 92 66 185 148 209 42 13 2721 14 2765
1z m56 -1062 c139 -98 127 -306 -23 -379 l-48 -24 -1335 -3 c-923 -2 -1351 1
-1387 8 -105 22 -176 108 -176 214 0 63 20 112 64 155 64 64 -36 61 1480 58
l1386 -2 39 -27z"/>
</g>
</svg>
